<?xml version="1.0" encoding="UTF-8" standalone="no"?>
<svg
   xmlns:dc="http://purl.org/dc/elements/1.1/"
   xmlns:cc="http://creativecommons.org/ns#"
   xmlns:rdf="http://www.w3.org/1999/02/22-rdf-syntax-ns#"
   xmlns:svg="http://www.w3.org/2000/svg"
   xmlns="http://www.w3.org/2000/svg"
   xmlns:sodipodi="http://sodipodi.sourceforge.net/DTD/sodipodi-0.dtd"
   xmlns:inkscape="http://www.inkscape.org/namespaces/inkscape"
   version="1.1"
   id="svg2"
   xml:space="preserve"
   width="526.53339"
   height="379.0993"
   viewBox="0 0 526.53339 379.0993"
   sodipodi:docname="train-ticket_lqn.svg"
   inkscape:version="1.0.2 (e86c870879, 2021-01-15)"
   inkscape:export-filename="/home/xeder/Desktop/projects/performance_engineering/SEAA-replication-package/img/train-ticket/train-ticket_lqn.png"
   inkscape:export-xdpi="96"
   inkscape:export-ydpi="96"><metadata
     id="metadata8"><rdf:RDF><cc:Work
         rdf:about=""><dc:format>image/svg+xml</dc:format><dc:type
           rdf:resource="http://purl.org/dc/dcmitype/StillImage" /><dc:title></dc:title></cc:Work></rdf:RDF></metadata><defs
     id="defs6"><marker
       style="overflow:visible"
       id="Arrow2Lend"
       refX="0"
       refY="0"
       orient="auto"
       inkscape:stockid="Arrow2Lend"
       inkscape:isstock="true"><path
         transform="matrix(-1.1,0,0,-1.1,-1.1,0)"
         d="M 8.7185878,4.0337352 -2.2072895,0.01601326 8.7185884,-4.0017078 c -1.7454984,2.3720609 -1.7354408,5.6174519 -6e-7,8.035443 z"
         style="fill:#000000;fill-opacity:1;fill-rule:evenodd;stroke:#000000;stroke-width:0.625;stroke-linejoin:round;stroke-opacity:1"
         id="path1223" /></marker><marker
       style="overflow:visible"
       id="Arrow1Lend"
       refX="0"
       refY="0"
       orient="auto"
       inkscape:stockid="Arrow1Lend"
       inkscape:isstock="true"><path
         transform="matrix(-0.8,0,0,-0.8,-10,0)"
         style="fill:#000000;fill-opacity:1;fill-rule:evenodd;stroke:#000000;stroke-width:1pt;stroke-opacity:1"
         d="M 0,0 5,-5 -12.5,0 5,5 Z"
         id="path1205" /></marker></defs><sodipodi:namedview
     pagecolor="#ffffff"
     bordercolor="#666666"
     borderopacity="1"
     objecttolerance="10"
     gridtolerance="10"
     guidetolerance="10"
     inkscape:pageopacity="0"
     inkscape:pageshadow="2"
     inkscape:window-width="1920"
     inkscape:window-height="1024"
     id="namedview4"
     showgrid="false"
     inkscape:zoom="1.5879081"
     inkscape:cx="242.52901"
     inkscape:cy="142.97956"
     inkscape:window-x="0"
     inkscape:window-y="27"
     inkscape:window-maximized="1"
     inkscape:current-layer="g12" /><g
     id="g10"
     inkscape:groupmode="layer"
     inkscape:label="ink_ext_XXXXXX"
     transform="matrix(1.3333333,0,0,-1.3333333,-23.63349,397.47993)"><g
       id="g12"
       transform="matrix(0.11404233,0,0,0.11508357,-2.487463,-2.6787043)"><rect
         style="fill:#ffffff;fill-opacity:1;stroke:none;stroke-width:5.13446;stroke-linejoin:round;stroke-miterlimit:4;stroke-dasharray:none;stroke-dashoffset:0;stroke-opacity:0.976471;paint-order:markers fill stroke"
         id="rect1510"
         width="3742.3716"
         height="2694.7703"
         x="20.962828"
         y="-2722.5767"
         transform="scale(1,-1)" /><path
         d="M 848.80219,2610 H 1710 l -57.4132,-450 H 791.389 l 57.41319,450"
         style="fill:#ffffff;fill-opacity:1;fill-rule:evenodd;stroke:none;stroke-width:1.12953"
         id="path14" /><path
         d="M 577.15009,2609.7198 H 1709.6895 l -75.5026,-449.4396 H 501.64746 Z"
         style="fill:none;stroke:#000000;stroke-width:6.47253;stroke-linecap:round;stroke-linejoin:miter;stroke-miterlimit:10;stroke-dasharray:none;stroke-opacity:1"
         id="path16" /><g
         id="g18"
         transform="matrix(10,0,0,10,-355.9698,18.928936)"><text
           transform="matrix(1,0,0,-1,122.499,222.3)"
           style="font-variant:normal;font-weight:normal;font-size:9px;font-family:'Times New Roman';-inkscape-font-specification:Times-Roman;writing-mode:lr-tb;fill:#000000;fill-opacity:1;fill-rule:nonzero;stroke:none"
           id="text22"><tspan
             x="0 6.4980001 10.998 18 20.502001"
             y="0"
             sodipodi:role="line"
             id="tspan20">Admin</tspan></text></g><path
         d="M 680.25363,2610 622.56769,2340 H 1526.314 L 1584,2610"
         style="fill:none;stroke:#000000;stroke-width:7.30842;stroke-linecap:round;stroke-linejoin:miter;stroke-miterlimit:10;stroke-dasharray:none;stroke-opacity:1"
         id="path24" /><g
         id="g26"
         transform="matrix(10,0,0,10,-249.06194,-0.7022685)"><text
           transform="matrix(1,0,0,-1,92.4086,249.3)"
           style="font-variant:normal;font-weight:normal;font-size:9px;font-family:'Times New Roman';-inkscape-font-specification:Times-Roman;writing-mode:lr-tb;fill:#000000;fill-opacity:1;fill-rule:nonzero;stroke:none"
           id="text32"><tspan
             x="0 3.9960001 8.4960003 15.498 18 22.5 27 31.5 36 40.5 44.495998 46.998001 50.993999 55.493999 59.993999 63.494999 67.490997 70.487999 74.987999 79.487999 83.484001"
             y="0"
             sodipodi:role="line"
             id="tspan28">admin_update_user_bes</tspan><tspan
             x="30.369499 33.366501 37.866501 40.116501 44.616501 49.116501 53.616501"
             y="9"
             sodipodi:role="line"
             id="tspan30">[0.875]</tspan></text></g><path
         d="M 1246.5,2340 549,1620"
         style="fill:none;stroke:#000000;stroke-width:5;stroke-linecap:round;stroke-linejoin:miter;stroke-miterlimit:10;stroke-dasharray:none;stroke-opacity:1"
         id="path34" /><path
         d="M 590.746,1663.09 579.973,1673.53 549,1620 l 52.52,32.66 -10.774,10.43"
         style="fill:#000000;fill-opacity:1;fill-rule:evenodd;stroke:none"
         id="path36" /><path
         d="M 590.746,1663.09 579.973,1673.53 549,1620 l 52.52,32.66 z"
         style="fill:none;stroke:#000000;stroke-width:5;stroke-linecap:round;stroke-linejoin:miter;stroke-miterlimit:10;stroke-dasharray:none;stroke-opacity:1"
         id="path38" /><g
         id="g40"
         transform="matrix(10,0,0,10,78.618914,98.71288)"><text
           transform="matrix(1,0,0,-1,67.0906,177.3)"
           style="font-variant:normal;font-weight:normal;font-size:9px;font-family:'Times New Roman';-inkscape-font-specification:Times-Roman;writing-mode:lr-tb;fill:#000000;fill-opacity:1;fill-rule:nonzero;stroke:none"
           id="text44"><tspan
             x="0 2.997 7.4970002"
             y="0"
             sodipodi:role="line"
             id="tspan42">(1)</tspan></text></g><path
         d="M 1359,2340 2853,1620"
         style="fill:none;stroke:#000000;stroke-width:5;stroke-linecap:round;stroke-linejoin:miter;stroke-miterlimit:10;stroke-dasharray:none;stroke-opacity:1"
         id="path46" /><path
         d="m 2798.95,1646.05 -6.51,-13.51 60.56,-12.54 -47.54,39.56 -6.51,-13.51"
         style="fill:#000000;fill-opacity:1;fill-rule:evenodd;stroke:none"
         id="path48" /><path
         d="m 2798.95,1646.05 -6.51,-13.51 60.56,-12.54 -47.54,39.56 z"
         style="fill:none;stroke:#000000;stroke-width:5;stroke-linecap:round;stroke-linejoin:miter;stroke-miterlimit:10;stroke-dasharray:none;stroke-opacity:1"
         id="path50" /><g
         id="g52"
         transform="matrix(10,0,0,10,123.569,-58.436959)"><text
           transform="matrix(1,0,0,-1,242.703,177.3)"
           style="font-variant:normal;font-weight:normal;font-size:9px;font-family:'Times New Roman';-inkscape-font-specification:Times-Roman;writing-mode:lr-tb;fill:#000000;fill-opacity:1;fill-rule:nonzero;stroke:none"
           id="text56"><tspan
             x="0 2.997 7.4970002"
             y="0"
             sodipodi:role="line"
             id="tspan54">(1)</tspan></text></g><path
         d="M 1471.5,2340 3276,1620"
         style="fill:none;stroke:#000000;stroke-width:5.00167;stroke-linecap:round;stroke-linejoin:miter;stroke-miterlimit:10;stroke-dasharray:none;stroke-opacity:1"
         id="path58" /><path
         d="m 3220.27,1642.23 -5.56,-13.93 61.29,-8.3 -50.17,36.17 -5.56,-13.94"
         style="fill:#000000;fill-opacity:1;fill-rule:evenodd;stroke:none"
         id="path60" /><path
         d="m 3220.27,1642.23 -5.56,-13.93 61.29,-8.3 -50.17,36.17 z"
         style="fill:none;stroke:#000000;stroke-width:5;stroke-linecap:round;stroke-linejoin:miter;stroke-miterlimit:10;stroke-dasharray:none;stroke-opacity:1"
         id="path62" /><g
         id="g64"
         transform="matrix(10,0,0,10,5.0243381,5.9237548)"><text
           transform="matrix(1,0,0,-1,277.241,177.3)"
           style="font-variant:normal;font-weight:normal;font-size:9px;font-family:'Times New Roman';-inkscape-font-specification:Times-Roman;writing-mode:lr-tb;fill:#000000;fill-opacity:1;fill-rule:nonzero;stroke:none"
           id="text68"><tspan
             x="0 2.997 7.4970002"
             y="0"
             sodipodi:role="line"
             id="tspan66">(1)</tspan></text></g><path
         d="M 1170,2160 736.078,621.551"
         style="fill:none;stroke:#000000;stroke-width:5;stroke-linecap:round;stroke-linejoin:miter;stroke-miterlimit:10;stroke-dasharray:none;stroke-opacity:1"
         id="path70" /><path
         d="m 752.367,679.297 -14.437,4.074 -1.852,-61.82 30.727,53.676 -14.438,4.07"
         style="fill:#000000;fill-opacity:1;fill-rule:evenodd;stroke:none"
         id="path72" /><path
         d="m 752.367,679.297 -14.437,4.074 -1.852,-61.82 30.727,53.676 z"
         style="fill:none;stroke:#000000;stroke-width:5;stroke-linecap:round;stroke-linejoin:miter;stroke-miterlimit:10;stroke-dasharray:none;stroke-opacity:1"
         id="path74" /><path
         d="m 2016.7683,2610.0153 h 1619.0821 l -86.1215,-434.0956 H 1930.6468 Z"
         style="fill:none;stroke:#000000;stroke-width:6.7937;stroke-linecap:round;stroke-linejoin:miter;stroke-miterlimit:10;stroke-dasharray:none;stroke-opacity:1"
         id="path78" /><g
         id="g80"
         transform="matrix(10,0,0,10,323.69823,15.574655)"><text
           transform="matrix(1,0,0,-1,216.054,222.3)"
           style="font-variant:normal;font-weight:normal;font-size:9px;font-family:'Times New Roman';-inkscape-font-specification:Times-Roman;writing-mode:lr-tb;fill:#000000;fill-opacity:1;fill-rule:nonzero;stroke:none"
           id="text84"><tspan
             x="0 6.4980001 9.9989996 13.995"
             y="0"
             sodipodi:role="line"
             id="tspan82">User</tspan></text></g><path
         d="m 1959.3712,2341.5727 h 923.6734 l 58.9577,267.6"
         style="fill:none;stroke:#000000;stroke-width:7.35564;stroke-linecap:round;stroke-linejoin:miter;stroke-miterlimit:10;stroke-dasharray:none;stroke-opacity:1"
         id="path86" /><g
         id="g88"
         transform="matrix(10,0,0,10,415.91896,-1.6177308)"><text
           transform="matrix(1,0,0,-1,160.309,249.3)"
           style="font-variant:normal;font-weight:normal;font-size:9px;font-family:'Times New Roman';-inkscape-font-specification:Times-Roman;writing-mode:lr-tb;fill:#000000;fill-opacity:1;fill-rule:nonzero;stroke:none"
           id="text94"><tspan
             x="0 4.5 8.0010004 11.997 14.994 19.493999 21.996 26.496 30.996 33.498001 37.998001 40.994999 47.997002 51.993 55.493999 58.994999 62.991001 67.490997 71.487 75.987 80.487 84.483002"
             y="0"
             sodipodi:role="line"
             id="tspan90">user_login-message_bes</tspan><tspan
             x="30.8687 33.8657 38.3657 40.6157 45.1157 49.6157 54.1157"
             y="9"
             sodipodi:role="line"
             id="tspan92">[0.123]</tspan></text></g><path
         d="M 2043,2340 1359,1620"
         style="fill:none;stroke:#000000;stroke-width:5;stroke-linecap:round;stroke-linejoin:miter;stroke-miterlimit:10;stroke-dasharray:none;stroke-opacity:1"
         id="path96" /><path
         d="m 1400.32,1663.5 -10.87,10.33 -30.45,-53.83 52.2,33.17 -10.88,10.33"
         style="fill:#000000;fill-opacity:1;fill-rule:evenodd;stroke:none"
         id="path98" /><path
         d="m 1400.32,1663.5 -10.87,10.33 -30.45,-53.83 52.2,33.17 z"
         style="fill:none;stroke:#000000;stroke-width:5;stroke-linecap:round;stroke-linejoin:miter;stroke-miterlimit:10;stroke-dasharray:none;stroke-opacity:1"
         id="path100" /><g
         id="g102"
         transform="scale(10)"><text
           transform="matrix(1,0,0,-1,147.753,177.3)"
           style="font-variant:normal;font-weight:normal;font-size:9px;font-family:'Times New Roman';-inkscape-font-specification:Times-Roman;writing-mode:lr-tb;fill:#000000;fill-opacity:1;fill-rule:nonzero;stroke:none"
           id="text106"><tspan
             x="0 2.997 7.4970002"
             y="0"
             sodipodi:role="line"
             id="tspan104">(1)</tspan></text></g><path
         d="M 2375.0415,2342.5518 H 3578.4908"
         style="fill:none;stroke:#000000;stroke-width:8.43361;stroke-linecap:round;stroke-linejoin:miter;stroke-miterlimit:10;stroke-dasharray:none;stroke-opacity:1"
         id="path108" /><g
         id="g110"
         transform="matrix(10,0,0,10,789.56837,3.3204635)"><text
           transform="matrix(1,0,0,-1,216.109,249.3)"
           style="font-variant:normal;font-weight:normal;font-size:9px;font-family:'Times New Roman';-inkscape-font-specification:Times-Roman;writing-mode:lr-tb;fill:#000000;fill-opacity:1;fill-rule:nonzero;stroke:none"
           id="text116"><tspan
             x="0 4.5 8.0010004 11.997 14.994 19.493999 22.490999 26.487 30.987 35.487 39.987 44.487 48.987 53.487 57.483002"
             y="0"
             sodipodi:role="line"
             id="tspan112">user_rebook_bes</tspan><tspan
             x="19.619101 22.6161 27.1161 29.3661 33.8661 38.3661"
             y="9"
             sodipodi:role="line"
             id="tspan114">[0.96]</tspan></text></g><g
         id="g124"
         transform="matrix(10,0,0,10,421.60762,223.81312)"><text
           transform="matrix(1,0,0,-1,219.078,177.3)"
           style="font-variant:normal;font-weight:normal;font-size:9px;font-family:'Times New Roman';-inkscape-font-specification:Times-Roman;writing-mode:lr-tb;fill:#000000;fill-opacity:1;fill-rule:nonzero;stroke:none"
           id="text128"><tspan
             x="0 2.997 7.4970002"
             y="0"
             sodipodi:role="line"
             id="tspan126">(1)</tspan></text></g><path
         d="M 2183.7769,2333.4783 1309.4867,609.80775"
         style="fill:none;stroke:#000000;stroke-width:5.83475;stroke-linecap:round;stroke-linejoin:miter;stroke-miterlimit:10;stroke-dasharray:none;stroke-opacity:1"
         id="path130" /><path
         d="m 1334.16,663.895 -13.63,6.269 -11.46,-60.773 38.71,48.23 -13.62,6.274"
         style="fill:#000000;fill-opacity:1;fill-rule:evenodd;stroke:none"
         id="path132" /><path
         d="m 1334.16,663.895 -13.63,6.269 -11.46,-60.773 38.71,48.23 z"
         style="fill:none;stroke:#000000;stroke-width:5;stroke-linecap:round;stroke-linejoin:miter;stroke-miterlimit:10;stroke-dasharray:none;stroke-opacity:1"
         id="path134" /><path
         d="M 225,1620 H 900 L 855,1170 H 180 l 45,450"
         style="fill:#ffffff;fill-opacity:1;fill-rule:evenodd;stroke:none"
         id="path136" /><path
         d="M 225,1620 H 900 L 855,1170 H 180 Z"
         style="fill:none;stroke:#000000;stroke-width:5;stroke-linecap:round;stroke-linejoin:miter;stroke-miterlimit:10;stroke-dasharray:none;stroke-opacity:1"
         id="path138" /><g
         id="g140"
         transform="scale(10)"><text
           transform="matrix(1,0,0,-1,32.5039,123.3)"
           style="font-variant:normal;font-weight:normal;font-size:9px;font-family:'Times New Roman';-inkscape-font-specification:Times-Roman;writing-mode:lr-tb;fill:#000000;fill-opacity:1;fill-rule:nonzero;stroke:none"
           id="text144"><tspan
             x="0 6.4980001 10.998 18 20.502001 25.002001 27.999001 32.499001 36 39.995998"
             y="0"
             sodipodi:role="line"
             id="tspan142">Admin-user</tspan></text></g><path
         d="m 273.72567,1620 -37.06154,-270 h 580.63089 l 37.06154,270"
         style="fill:none;stroke:#000000;stroke-width:5.85801;stroke-linecap:round;stroke-linejoin:miter;stroke-miterlimit:10;stroke-dasharray:none;stroke-opacity:1"
         id="path146" /><g
         id="g148"
         transform="matrix(10,0,0,10,-6.9389622,2.6404896)"><text
           transform="matrix(1,0,0,-1,27.1582,150.3)"
           style="font-variant:normal;font-weight:normal;font-size:9px;font-family:'Times New Roman';-inkscape-font-specification:Times-Roman;writing-mode:lr-tb;fill:#000000;fill-opacity:1;fill-rule:nonzero;stroke:none"
           id="text154"><tspan
             x="0 4.5 9 13.5 17.496 19.997999 23.993999 28.493999 31.995001 35.991001 38.987999 43.487999 47.987999 51.984001"
             y="0"
             sodipodi:role="line"
             id="tspan150">updateuser_bes</tspan><tspan
             x="14.6199 17.616899 22.116899 24.366899 28.866899 33.366901 37.866901"
             y="9"
             sodipodi:role="line"
             id="tspan152">[0.789]</tspan></text></g><path
         d="M 540,1170 635.898,626.574"
         style="fill:none;stroke:#000000;stroke-width:5;stroke-linecap:round;stroke-linejoin:miter;stroke-miterlimit:10;stroke-dasharray:none;stroke-opacity:1"
         id="path156" /><path
         d="m 625.473,685.664 -14.774,-2.609 25.199,-56.481 4.344,61.696 -14.769,-2.606"
         style="fill:#000000;fill-opacity:1;fill-rule:evenodd;stroke:none"
         id="path158" /><path
         d="m 625.473,685.664 -14.774,-2.609 25.199,-56.481 4.344,61.696 z"
         style="fill:none;stroke:#000000;stroke-width:5;stroke-linecap:round;stroke-linejoin:miter;stroke-miterlimit:10;stroke-dasharray:none;stroke-opacity:1"
         id="path160" /><path
         d="m 1035,1620 h 675 l -45,-450 H 990 l 45,450"
         style="fill:#ffffff;fill-opacity:1;fill-rule:evenodd;stroke:none"
         id="path162" /><path
         d="m 1035,1620 h 675 l -45,-450 H 990 Z"
         style="fill:none;stroke:#000000;stroke-width:5;stroke-linecap:round;stroke-linejoin:miter;stroke-miterlimit:10;stroke-dasharray:none;stroke-opacity:1"
         id="path164" /><g
         id="g166"
         transform="scale(10)"><text
           transform="matrix(1,0,0,-1,124.25,123.3)"
           style="font-variant:normal;font-weight:normal;font-size:9px;font-family:'Times New Roman';-inkscape-font-specification:Times-Roman;writing-mode:lr-tb;fill:#000000;fill-opacity:1;fill-rule:nonzero;stroke:none"
           id="text170"><tspan
             x="0 5.4990001 9.9989996 14.499 17.000999"
             y="0"
             sodipodi:role="line"
             id="tspan168">Login</tspan></text></g><path
         d="m 1161,1620 -27,-270 h 423 l 27,270"
         style="fill:none;stroke:#000000;stroke-width:5;stroke-linecap:round;stroke-linejoin:miter;stroke-miterlimit:10;stroke-dasharray:none;stroke-opacity:1"
         id="path172" /><g
         id="g174"
         transform="scale(10)"><text
           transform="matrix(1,0,0,-1,118.4,150.3)"
           style="font-variant:normal;font-weight:normal;font-size:9px;font-family:'Times New Roman';-inkscape-font-specification:Times-Roman;writing-mode:lr-tb;fill:#000000;fill-opacity:1;fill-rule:nonzero;stroke:none"
           id="text180"><tspan
             x="0 4.5 8.4960003 11.997 16.497 18.999001 23.499001 27.999001 30.500999"
             y="0"
             sodipodi:role="line"
             id="tspan176">bes_login</tspan><tspan
             x="4.3781199 7.3751202 11.87512 14.12512 18.62512 23.12512 27.62512"
             y="9"
             sodipodi:role="line"
             id="tspan178">[0.345]</tspan></text></g><path
         d="M 1284,1350 2583,630"
         style="fill:none;stroke:#000000;stroke-width:5;stroke-linecap:round;stroke-linejoin:miter;stroke-miterlimit:10;stroke-dasharray:none;stroke-opacity:1"
         id="path182" /><path
         d="M 2530.52,659.086 2523.25,645.969 2583,630 l -45.21,42.207 -7.27,-13.121"
         style="fill:#000000;fill-opacity:1;fill-rule:evenodd;stroke:none"
         id="path184" /><path
         d="M 2530.52,659.086 2523.25,645.969 2583,630 l -45.21,42.207 z"
         style="fill:none;stroke:#000000;stroke-width:5;stroke-linecap:round;stroke-linejoin:miter;stroke-miterlimit:10;stroke-dasharray:none;stroke-opacity:1"
         id="path186" /><g
         id="g188"
         transform="scale(10)"><text
           transform="matrix(1,0,0,-1,220.578,78.3)"
           style="font-variant:normal;font-weight:normal;font-size:9px;font-family:'Times New Roman';-inkscape-font-specification:Times-Roman;writing-mode:lr-tb;fill:#000000;fill-opacity:1;fill-rule:nonzero;stroke:none"
           id="text192"><tspan
             x="0 2.997 7.4970002"
             y="0"
             sodipodi:role="line"
             id="tspan190">(1)</tspan></text></g><path
         d="M 1434,1350 3006,630"
         style="fill:none;stroke:#000000;stroke-width:5;stroke-linecap:round;stroke-linejoin:miter;stroke-miterlimit:10;stroke-dasharray:none;stroke-opacity:1"
         id="path194" /><path
         d="M 2951.45,654.984 2945.2,641.348 3006,630 l -48.3,38.621 -6.25,-13.637"
         style="fill:#000000;fill-opacity:1;fill-rule:evenodd;stroke:none"
         id="path196" /><path
         d="M 2951.45,654.984 2945.2,641.348 3006,630 l -48.3,38.621 z"
         style="fill:none;stroke:#000000;stroke-width:5;stroke-linecap:round;stroke-linejoin:miter;stroke-miterlimit:10;stroke-dasharray:none;stroke-opacity:1"
         id="path198" /><g
         id="g200"
         transform="scale(10)"><text
           transform="matrix(1,0,0,-1,256.053,78.3)"
           style="font-variant:normal;font-weight:normal;font-size:9px;font-family:'Times New Roman';-inkscape-font-specification:Times-Roman;writing-mode:lr-tb;fill:#000000;fill-opacity:1;fill-rule:nonzero;stroke:none"
           id="text204"><tspan
             x="0 2.997 7.4970002"
             y="0"
             sodipodi:role="line"
             id="tspan202">(1)</tspan></text></g><path
         d="M 1350,1170 1254.1,626.574"
         style="fill:none;stroke:#000000;stroke-width:5;stroke-linecap:round;stroke-linejoin:miter;stroke-miterlimit:10;stroke-dasharray:none;stroke-opacity:1"
         id="path206" /><path
         d="m 1264.53,685.664 -14.78,2.606 4.35,-61.696 25.2,56.481 -14.77,2.609"
         style="fill:#000000;fill-opacity:1;fill-rule:evenodd;stroke:none"
         id="path208" /><path
         d="m 1264.53,685.664 -14.78,2.606 4.35,-61.696 25.2,56.481 z"
         style="fill:none;stroke:#000000;stroke-width:5;stroke-linecap:round;stroke-linejoin:miter;stroke-miterlimit:10;stroke-dasharray:none;stroke-opacity:1"
         id="path210" /><path
         d="m 1845,1620 h 675 l -45,-450 h -675 l 45,450"
         style="fill:#ffffff;fill-opacity:1;fill-rule:evenodd;stroke:none"
         id="path212" /><path
         d="m 1845,1620 h 675 l -45,-450 h -675 z"
         style="fill:none;stroke:#000000;stroke-width:5;stroke-linecap:round;stroke-linejoin:miter;stroke-miterlimit:10;stroke-dasharray:none;stroke-opacity:1"
         id="path214" /><g
         id="g216"
         transform="scale(10)"><text
           transform="matrix(1,0,0,-1,202.001,123.3)"
           style="font-variant:normal;font-weight:normal;font-size:9px;font-family:'Times New Roman';-inkscape-font-specification:Times-Roman;writing-mode:lr-tb;fill:#000000;fill-opacity:1;fill-rule:nonzero;stroke:none"
           id="text220"><tspan
             x="0 6.0029998 9.9989996 14.499 18.999001 23.499001"
             y="0"
             sodipodi:role="line"
             id="tspan218">Rebook</tspan></text></g><path
         d="m 1971,1620 -27,-270 h 423 l 27,270"
         style="fill:none;stroke:#000000;stroke-width:5;stroke-linecap:round;stroke-linejoin:miter;stroke-miterlimit:10;stroke-dasharray:none;stroke-opacity:1"
         id="path222" /><g
         id="g224"
         transform="scale(10)"><text
           transform="matrix(1,0,0,-1,196.155,150.3)"
           style="font-variant:normal;font-weight:normal;font-size:9px;font-family:'Times New Roman';-inkscape-font-specification:Times-Roman;writing-mode:lr-tb;fill:#000000;fill-opacity:1;fill-rule:nonzero;stroke:none"
           id="text230"><tspan
             x="0 2.997 6.993 11.493 15.993 20.493 24.993 29.493 33.993 37.988998"
             y="0"
             sodipodi:role="line"
             id="tspan226">rebook_bes</tspan><tspan
             x="7.6226602 10.61966 15.11966 17.369659 21.869659 26.369659 30.869659"
             y="9"
             sodipodi:role="line"
             id="tspan228">[0.324]</tspan></text></g><path
         d="M 2169,1350 1899,630"
         style="fill:none;stroke:#000000;stroke-width:5;stroke-linecap:round;stroke-linejoin:miter;stroke-miterlimit:10;stroke-dasharray:none;stroke-opacity:1"
         id="path232" /><path
         d="m 1920.07,686.18 -14.05,5.265 L 1899,630 l 35.11,50.914 -14.04,5.266"
         style="fill:#000000;fill-opacity:1;fill-rule:evenodd;stroke:none"
         id="path234" /><path
         d="m 1920.07,686.18 -14.05,5.265 L 1899,630 l 35.11,50.914 z"
         style="fill:none;stroke:#000000;stroke-width:5;stroke-linecap:round;stroke-linejoin:miter;stroke-miterlimit:10;stroke-dasharray:none;stroke-opacity:1"
         id="path236" /><g
         id="g238"
         transform="scale(10)"><text
           transform="matrix(1,0,0,-1,191.403,78.3)"
           style="font-variant:normal;font-weight:normal;font-size:9px;font-family:'Times New Roman';-inkscape-font-specification:Times-Roman;writing-mode:lr-tb;fill:#000000;fill-opacity:1;fill-rule:nonzero;stroke:none"
           id="text242"><tspan
             x="0 2.997 7.4970002"
             y="0"
             sodipodi:role="line"
             id="tspan240">(1)</tspan></text></g><path
         d="m 2655,1620 h 846 l -45,-450 h -846 l 45,450"
         style="fill:#ffffff;fill-opacity:1;fill-rule:evenodd;stroke:none"
         id="path244" /><path
         d="m 2655,1620 h 846 l -45,-450 h -846 z"
         style="fill:none;stroke:#000000;stroke-width:5;stroke-linecap:round;stroke-linejoin:miter;stroke-miterlimit:10;stroke-dasharray:none;stroke-opacity:1"
         id="path246" /><g
         id="g248"
         transform="scale(10)"><text
           transform="matrix(1,0,0,-1,299.048,123.3)"
           style="font-variant:normal;font-weight:normal;font-size:9px;font-family:'Times New Roman';-inkscape-font-specification:Times-Roman;writing-mode:lr-tb;fill:#000000;fill-opacity:1;fill-rule:nonzero;stroke:none"
           id="text252"><tspan
             x="0 5.0040002 8.5050001"
             y="0"
             sodipodi:role="line"
             id="tspan250">Sso</tspan></text></g><path
         d="m 2628,1350 h 423 l 27,270"
         style="fill:none;stroke:#000000;stroke-width:5;stroke-linecap:round;stroke-linejoin:miter;stroke-miterlimit:10;stroke-dasharray:none;stroke-opacity:1"
         id="path254" /><g
         id="g256"
         transform="scale(10)"><text
           transform="matrix(1,0,0,-1,265.302,150.3)"
           style="font-variant:normal;font-weight:normal;font-size:9px;font-family:'Times New Roman';-inkscape-font-specification:Times-Roman;writing-mode:lr-tb;fill:#000000;fill-opacity:1;fill-rule:nonzero;stroke:none"
           id="text262"><tspan
             x="0 2.997 5.4990001 9.9989996 14.499 18.495001 20.997 23.499001 27.999001 32.499001 36.494999"
             y="0"
             sodipodi:role="line"
             id="tspan258">findall_bes</tspan><tspan
             x="6.8757801 9.8727798 14.37278 16.62278 21.12278 25.62278 30.12278"
             y="9"
             sodipodi:role="line"
             id="tspan260">[0.345]</tspan></text></g><path
         d="m 3051,1350 h 423"
         style="fill:none;stroke:#000000;stroke-width:5;stroke-linecap:round;stroke-linejoin:miter;stroke-miterlimit:10;stroke-dasharray:none;stroke-opacity:1"
         id="path264" /><g
         id="g266"
         transform="scale(10)"><text
           transform="matrix(1,0,0,-1,306.352,150.3)"
           style="font-variant:normal;font-weight:normal;font-size:9px;font-family:'Times New Roman';-inkscape-font-specification:Times-Roman;writing-mode:lr-tb;fill:#000000;fill-opacity:1;fill-rule:nonzero;stroke:none"
           id="text272"><tspan
             x="0 7.0019999 11.502 16.002001 18.504 21.500999 26.000999 30.500999 35.000999 38.997002"
             y="0"
             sodipodi:role="line"
             id="tspan268">modify_bes</tspan><tspan
             x="8.1265602 11.12356 15.62356 17.87356 22.37356 26.87356 31.37356"
             y="9"
             sodipodi:role="line"
             id="tspan270">[0.875]</tspan></text></g><path
         d="m 872.74809,405.38501 c 0,124.262 -100.738,225 -225,225 -124.262,0 -225,-100.738 -225,-225 0,-124.262 100.738,-225 225,-225 124.262,0 225,100.738 225,225 z"
         style="fill:none;stroke:#000000;stroke-width:5;stroke-linecap:round;stroke-linejoin:miter;stroke-miterlimit:10;stroke-dasharray:none;stroke-opacity:1"
         id="path276" /><path
         d="m 1497.7526,390.48945 c 0,124.262 -100.74,225 -225,225 -124.26,0 -225,-100.738 -225,-225 0,-124.262 100.74,-225 225,-225 124.26,0 225,100.738 225,225 z"
         style="fill:none;stroke:#000000;stroke-width:5;stroke-linecap:round;stroke-linejoin:miter;stroke-miterlimit:10;stroke-dasharray:none;stroke-opacity:1"
         id="path286" /><path
         d="m 1632.6176,628.89305 h 675 l -45,-450 h -675 l 45,450"
         style="fill:#ffffff;fill-opacity:1;fill-rule:evenodd;stroke:none"
         id="path294" /><path
         d="m 1632.6176,628.89305 h 675 l -45,-450 h -675 z"
         style="fill:none;stroke:#000000;stroke-width:5;stroke-linecap:round;stroke-linejoin:miter;stroke-miterlimit:10;stroke-dasharray:none;stroke-opacity:1"
         id="path296" /><g
         id="g298"
         transform="matrix(10,0,0,10,57.617604,-1.1069466)"><text
           transform="matrix(1,0,0,-1,167.761,24.3)"
           style="font-variant:normal;font-weight:normal;font-size:9px;font-family:'Times New Roman';-inkscape-font-specification:Times-Roman;writing-mode:lr-tb;fill:#000000;fill-opacity:1;fill-rule:nonzero;stroke:none"
           id="text302"><tspan
             x="0 6.4980001 9.4949999 13.995 17.990999 20.988001 23.985001 28.485001 30.987 35.487 39.483002"
             y="0"
             sodipodi:role="line"
             id="tspan300">Order-other</tspan></text></g><path
         d="m 1722.8892,628.89305 -31.6412,-270 h 495.7122 l 31.6413,270"
         style="fill:none;stroke:#000000;stroke-width:5.41271;stroke-linecap:round;stroke-linejoin:miter;stroke-miterlimit:10;stroke-dasharray:none;stroke-opacity:1"
         id="path304" /><g
         id="g306"
         transform="matrix(10,0,0,10,57.617604,-1.1069466)"><text
           transform="matrix(1,0,0,-1,168.152,51.3)"
           style="font-variant:normal;font-weight:normal;font-size:9px;font-family:'Times New Roman';-inkscape-font-specification:Times-Roman;writing-mode:lr-tb;fill:#000000;fill-opacity:1;fill-rule:nonzero;stroke:none"
           id="text312"><tspan
             x="0 4.5 8.4960003 10.998 15.498 19.997999 22.5 27 31.5 36 39.995998"
             y="0"
             sodipodi:role="line"
             id="tspan308">getbyid_bes</tspan><tspan
             x="8.6261702 11.62317 16.123171 18.373171 22.873171 27.373171 31.873171"
             y="9"
             sodipodi:role="line"
             id="tspan310">[0.324]</tspan></text></g><path
         d="m 2422.2745,593.0627 h 846 l -45,-450 h -846 l 45,450"
         style="fill:#ffffff;fill-opacity:1;fill-rule:evenodd;stroke:none"
         id="path314" /><path
         d="m 2389.1694,629.88564 h 922.0102 l -49.0431,-449.77128 h -922.0101 z"
         style="fill:none;stroke:#000000;stroke-width:5.21846;stroke-linecap:round;stroke-linejoin:miter;stroke-miterlimit:10;stroke-dasharray:none;stroke-opacity:1"
         id="path316" /><g
         id="g318"
         transform="scale(10)"><text
           transform="matrix(1,0,0,-1,256.807,24.3)"
           style="font-variant:normal;font-weight:normal;font-size:9px;font-family:'Times New Roman';-inkscape-font-specification:Times-Roman;writing-mode:lr-tb;fill:#000000;fill-opacity:1;fill-rule:nonzero;stroke:none"
           id="text322"><tspan
             x="0 6.4980001 10.494 13.491 15.993 18.99 21.492001 25.488001 29.483999 31.986 34.487999 38.987999"
             y="0"
             sodipodi:role="line"
             id="tspan320">Verification</tspan></text></g><path
         d="m 2358.1434,360.14341 h 473.6627 l 30.2338,269.71318"
         style="fill:none;stroke:#000000;stroke-width:5.28815;stroke-linecap:round;stroke-linejoin:miter;stroke-miterlimit:10;stroke-dasharray:none;stroke-opacity:1"
         id="path324" /><g
         id="g326"
         transform="matrix(10,0,0,10,34.370307,0)"><text
           transform="matrix(1,0,0,-1,234.811,51.3)"
           style="font-variant:normal;font-weight:normal;font-size:9px;font-family:'Times New Roman';-inkscape-font-specification:Times-Roman;writing-mode:lr-tb;fill:#000000;fill-opacity:1;fill-rule:nonzero;stroke:none"
           id="text332"><tspan
             x="0 4.5 8.4960003 12.996 16.992001 19.989 23.985001 26.487 30.483 34.983002 39.483002 43.479"
             y="0"
             sodipodi:role="line"
             id="tspan328">generate_bes</tspan><tspan
             x="12.6172 15.6142 20.114201 22.364201 26.864201 31.364201"
             y="9"
             sodipodi:role="line"
             id="tspan330">[0.56]</tspan></text></g><path
         d="M 2781.5199,360 H 3293.944"
         style="fill:none;stroke:#000000;stroke-width:5.50319;stroke-linecap:round;stroke-linejoin:miter;stroke-miterlimit:10;stroke-dasharray:none;stroke-opacity:1"
         id="path334" /><g
         id="g336"
         transform="matrix(10,0,0,10,71.855927,6.1266573)"><text
           transform="matrix(1,0,0,-1,281.606,51.3)"
           style="font-variant:normal;font-weight:normal;font-size:9px;font-family:'Times New Roman';-inkscape-font-specification:Times-Roman;writing-mode:lr-tb;fill:#000000;fill-opacity:1;fill-rule:nonzero;stroke:none"
           id="text342"><tspan
             x="0 4.5 8.4960003 11.493 13.995 16.992001 21.492001 25.992001 30.492001 34.487999"
             y="0"
             sodipodi:role="line"
             id="tspan338">verify_bes</tspan><tspan
             x="5.8722701 8.8692703 13.36927 15.61927 20.11927 24.61927 29.11927"
             y="9"
             sodipodi:role="line"
             id="tspan340">[0.345]</tspan></text></g><rect
         style="fill:#ffffff;fill-opacity:1;stroke:#d1082d;stroke-width:9.22428;stroke-linejoin:round;stroke-miterlimit:4;stroke-dasharray:0, 101.467;stroke-dashoffset:0;stroke-opacity:0.976471;paint-order:markers fill stroke"
         id="rect1167"
         width="546.09198"
         height="102.92383"
         x="1010.3708"
         y="-442.58054"
         transform="scale(1,-1)" /><g
         id="g288"
         transform="matrix(10,0,0,10,61.457901,-0.12324448)"><text
           transform="matrix(1,0,0,-1,94.0059,37.8)"
           style="font-variant:normal;font-weight:normal;font-size:9px;font-family:'Times New Roman';-inkscape-font-specification:Times-Roman;writing-mode:lr-tb;fill:#000000;fill-opacity:1;fill-rule:nonzero;stroke:none"
           id="text292"><tspan
             x="0 3.9960001 8.4960003 12.996 15.498 19.493999 21.996 26.496 30.492001 33.488998 36.486 38.987999 43.487999 47.987999 50.490002"
             y="0"
             sodipodi:role="line"
             id="tspan290">container-login</tspan></text></g><rect
         style="fill:#ffffff;fill-opacity:1;stroke:#d1082d;stroke-width:10.9493;stroke-linejoin:round;stroke-miterlimit:4;stroke-dasharray:0, 120.442;stroke-dashoffset:0;stroke-opacity:0.976471;paint-order:markers fill stroke"
         id="rect1167-6"
         width="769.44073"
         height="102.92383"
         x="212.93704"
         y="-472.38739"
         transform="scale(1,-1)" /><g
         id="g278"
         transform="matrix(10,0,0,10,-87.946904,10.289168)"><text
           transform="matrix(1,0,0,-1,29.0129,37.8)"
           style="font-variant:normal;font-weight:normal;font-size:9px;font-family:'Times New Roman';-inkscape-font-specification:Times-Roman;writing-mode:lr-tb;fill:#000000;fill-opacity:1;fill-rule:nonzero;stroke:none"
           id="text282"><tspan
             x="0 3.9960001 8.4960003 12.996 15.498 19.493999 21.996 26.496 30.492001 33.488998 36.486 40.481998 44.981998 51.984001 54.486 58.986 61.983002 66.483002 69.984001 73.980003"
             y="0"
             sodipodi:role="line"
             id="tspan280">container-admin-user</tspan></text></g><path
         style="fill:none;fill-rule:evenodd;stroke:#000000;stroke-width:4.97053;stroke-linecap:butt;stroke-linejoin:miter;stroke-miterlimit:4;stroke-dasharray:none;stroke-opacity:1;marker-end:url(#Arrow2Lend)"
         d="M 3025.2078,2343.9998 2257.4753,1611.2386"
         id="path1200"
         inkscape:connector-type="polyline"
         inkscape:connector-curvature="0" /></g></g></svg>
