<?xml version="1.0" encoding="UTF-8" standalone="no"?>
<svg
   xmlns:dc="http://purl.org/dc/elements/1.1/"
   xmlns:cc="http://creativecommons.org/ns#"
   xmlns:rdf="http://www.w3.org/1999/02/22-rdf-syntax-ns#"
   xmlns:svg="http://www.w3.org/2000/svg"
   xmlns="http://www.w3.org/2000/svg"
   xmlns:sodipodi="http://sodipodi.sourceforge.net/DTD/sodipodi-0.dtd"
   xmlns:inkscape="http://www.inkscape.org/namespaces/inkscape"
   version="1.1"
   id="svg851"
   xml:space="preserve"
   width="580.26929"
   height="328.76413"
   viewBox="0 0 580.26929 328.76413"
   sodipodi:docname="agv_lqn.svg"
   inkscape:version="1.0.2 (e86c870879, 2021-01-15)"
   inkscape:export-filename="/home/xeder/Desktop/projects/performance_engineering/SEAA-replication-package/img/agv/agv_lqn.png"
   inkscape:export-xdpi="96"
   inkscape:export-ydpi="96"><metadata
     id="metadata857"><rdf:RDF><cc:Work
         rdf:about=""><dc:format>image/svg+xml</dc:format><dc:type
           rdf:resource="http://purl.org/dc/dcmitype/StillImage" /><dc:title></dc:title></cc:Work></rdf:RDF></metadata><defs
     id="defs855" /><sodipodi:namedview
     pagecolor="#ffffff"
     bordercolor="#666666"
     borderopacity="1"
     objecttolerance="10"
     gridtolerance="10"
     guidetolerance="10"
     inkscape:pageopacity="0"
     inkscape:pageshadow="2"
     inkscape:window-width="1920"
     inkscape:window-height="1024"
     id="namedview853"
     showgrid="false"
     inkscape:zoom="1.0776515"
     inkscape:cx="110.44048"
     inkscape:cy="192.67738"
     inkscape:window-x="0"
     inkscape:window-y="27"
     inkscape:window-maximized="1"
     inkscape:current-layer="g861" /><g
     id="g859"
     inkscape:groupmode="layer"
     inkscape:label="ink_ext_XXXXXX"
     transform="matrix(1.3333333,0,0,-1.3333333,-9.0505949,348.48096)"><g
       id="g861"
       transform="scale(0.1)"><rect
         style="fill:#ffffff;stroke-width:5.73;stroke-linejoin:round;stroke-opacity:0.976471;paint-order:markers fill stroke"
         id="rect1185"
         width="4612.8623"
         height="2751.1792"
         x="-34.523697"
         y="-2725.8503"
         transform="scale(1,-1)" /><path
         d="m 985.5,2610 h 675 l -45,-450 h -675 l 45,450"
         style="fill:#ffffff;fill-opacity:1;fill-rule:evenodd;stroke:none"
         id="path863" /><path
         d="m 872.37962,2609.782 h 859.40528 l -57.2937,-449.564 H 815.08593 Z"
         style="fill:none;stroke:#000000;stroke-width:5.63906;stroke-linecap:round;stroke-linejoin:miter;stroke-miterlimit:10;stroke-dasharray:none;stroke-opacity:1"
         id="path865" /><g
         id="g867"
         transform="scale(10)"><text
           transform="matrix(1,0,0,-1,104.806,222.3)"
           style="font-variant:normal;font-weight:normal;font-size:9px;font-family:'Times New Roman';-inkscape-font-specification:Times-Roman;writing-mode:lr-tb;fill:#000000;fill-opacity:1;fill-rule:nonzero;stroke:none"
           id="text871"><tspan
             x="0 6.4980001 9.4949999 12.492 14.994 19.493999 23.49 25.992001 30.996 34.992001 39.492001 42.993 47.493"
             y="0"
             sodipodi:role="line"
             id="tspan869">ArrivalSensor</tspan></text></g><path
         d="m 934.44283,2609.8795 -46.33702,-269.759 h 725.94669 l 46.3371,269.759"
         style="fill:none;stroke:#000000;stroke-width:6.54724;stroke-linecap:round;stroke-linejoin:miter;stroke-miterlimit:10;stroke-dasharray:none;stroke-opacity:1"
         id="path873" /><g
         id="g875"
         transform="matrix(10,0,0,10,-23.595701,1.4603702)"><text
           transform="matrix(1,0,0,-1,97.9617,249.3)"
           style="font-variant:normal;font-weight:normal;font-size:9px;font-family:'Times New Roman';-inkscape-font-specification:Times-Roman;writing-mode:lr-tb;fill:#000000;fill-opacity:1;fill-rule:nonzero;stroke:none"
           id="text881"><tspan
             x="0 3.9960001 6.993 9.9899998 12.492 16.992001 20.988001 23.49 26.487 29.988001 33.984001 38.484001 41.985001 46.485001 49.481998 53.981998 58.481998 62.478001"
             y="0"
             sodipodi:role="line"
             id="tspan877">arrival-sensor_bes</tspan><tspan
             x="24.3664 27.3634 31.8634 34.1134 38.6134"
             y="9"
             sodipodi:role="line"
             id="tspan879">[0.5]</tspan></text></g><path
         d="m 1309.5,2340 387,-720"
         style="fill:none;stroke:#000000;stroke-width:5;stroke-linecap:round;stroke-linejoin:miter;stroke-miterlimit:10;stroke-dasharray:none;stroke-opacity:1"
         id="path883" /><path
         d="m 1668.09,1672.85 -13.21,-7.1 41.62,-45.75 -15.2,59.95 -13.21,-7.1"
         style="fill:#000000;fill-opacity:1;fill-rule:evenodd;stroke:none"
         id="path885" /><path
         d="m 1668.09,1672.85 -13.21,-7.1 41.62,-45.75 -15.2,59.95 z"
         style="fill:none;stroke:#000000;stroke-width:5;stroke-linecap:round;stroke-linejoin:miter;stroke-miterlimit:10;stroke-dasharray:none;stroke-opacity:1"
         id="path887" /><g
         id="g889"
         transform="scale(10)"><text
           transform="matrix(1,0,0,-1,154.728,177.3)"
           style="font-variant:normal;font-weight:normal;font-size:9px;font-family:'Times New Roman';-inkscape-font-specification:Times-Roman;writing-mode:lr-tb;fill:#000000;fill-opacity:1;fill-rule:nonzero;stroke:none"
           id="text893"><tspan
             x="0 2.997 7.4970002"
             y="0"
             sodipodi:role="line"
             id="tspan891">(1)</tspan></text></g><path
         d="M 1120.5,2160 489.941,613.352"
         style="fill:none;stroke:#000000;stroke-width:5;stroke-linecap:round;stroke-linejoin:miter;stroke-miterlimit:10;stroke-dasharray:none;stroke-opacity:1"
         id="path895" /><path
         d="m 512.594,668.91 -13.891,5.664 -8.762,-61.222 36.543,49.894 -13.89,5.664"
         style="fill:#000000;fill-opacity:1;fill-rule:evenodd;stroke:none"
         id="path897" /><path
         d="m 512.594,668.91 -13.891,5.664 -8.762,-61.222 36.543,49.894 z"
         style="fill:none;stroke:#000000;stroke-width:5;stroke-linecap:round;stroke-linejoin:miter;stroke-miterlimit:10;stroke-dasharray:none;stroke-opacity:1"
         id="path899" /><path
         d="m 1795.5,2610 h 675 l -45,-450 h -675 l 45,450"
         style="fill:#ffffff;fill-opacity:1;fill-rule:evenodd;stroke:none"
         id="path901" /><path
         d="m 1795.5,2610 h 675 l -45,-450 h -675 z"
         style="fill:none;stroke:#000000;stroke-width:5;stroke-linecap:round;stroke-linejoin:miter;stroke-miterlimit:10;stroke-dasharray:none;stroke-opacity:1"
         id="path903" /><g
         id="g905"
         transform="scale(10)"><text
           transform="matrix(1,0,0,-1,200.3,222.3)"
           style="font-variant:normal;font-weight:normal;font-size:9px;font-family:'Times New Roman';-inkscape-font-specification:Times-Roman;writing-mode:lr-tb;fill:#000000;fill-opacity:1;fill-rule:nonzero;stroke:none"
           id="text909"><tspan
             x="0 6.0029998 8.5050001 13.005 17.000999"
             y="0"
             sodipodi:role="line"
             id="tspan907">Clock</tspan></text></g><path
         d="m 1921.5,2610 -27,-270 h 423 l 27,270"
         style="fill:none;stroke:#000000;stroke-width:5;stroke-linecap:round;stroke-linejoin:miter;stroke-miterlimit:10;stroke-dasharray:none;stroke-opacity:1"
         id="path911" /><g
         id="g913"
         transform="scale(10)"><text
           transform="matrix(1,0,0,-1,193.955,249.3)"
           style="font-variant:normal;font-weight:normal;font-size:9px;font-family:'Times New Roman';-inkscape-font-specification:Times-Roman;writing-mode:lr-tb;fill:#000000;fill-opacity:1;fill-rule:nonzero;stroke:none"
           id="text919"><tspan
             x="0 3.9960001 6.4980001 10.998 14.994 19.493999 23.993999 28.493999 32.490002"
             y="0"
             sodipodi:role="line"
             id="tspan915">clock_bes</tspan><tspan
             x="4.8730502 7.87005 12.37005 14.62005 19.12005 23.62005 28.12005"
             y="9"
             sodipodi:role="line"
             id="tspan917">[0.358]</tspan></text></g><path
         d="M 2119.5,2340 V 1620"
         style="fill:none;stroke:#000000;stroke-width:5;stroke-linecap:round;stroke-linejoin:miter;stroke-miterlimit:10;stroke-dasharray:none;stroke-opacity:1"
         id="path921" /><path
         d="m 2119.5,1680 h -15 l 15,-60 15,60 h -15"
         style="fill:#000000;fill-opacity:1;fill-rule:evenodd;stroke:none"
         id="path923" /><path
         d="m 2119.5,1680 h -15 l 15,-60 15,60 z"
         style="fill:none;stroke:#000000;stroke-width:5;stroke-linecap:round;stroke-linejoin:miter;stroke-miterlimit:10;stroke-dasharray:none;stroke-opacity:1"
         id="path925" /><g
         id="g927"
         transform="scale(10)"><text
           transform="matrix(1,0,0,-1,206.703,177.3)"
           style="font-variant:normal;font-weight:normal;font-size:9px;font-family:'Times New Roman';-inkscape-font-specification:Times-Roman;writing-mode:lr-tb;fill:#000000;fill-opacity:1;fill-rule:nonzero;stroke:none"
           id="text931"><tspan
             x="0 2.997 7.4970002"
             y="0"
             sodipodi:role="line"
             id="tspan929">(1)</tspan></text></g><path
         d="M 1930.5,2160 552.609,574.813"
         style="fill:none;stroke:#000000;stroke-width:5;stroke-linecap:round;stroke-linejoin:miter;stroke-miterlimit:10;stroke-dasharray:none;stroke-opacity:1"
         id="path933" /><path
         d="m 591.969,620.098 -11.321,9.84 -28.039,-55.125 50.68,35.445 -11.32,9.84"
         style="fill:#000000;fill-opacity:1;fill-rule:evenodd;stroke:none"
         id="path935" /><path
         d="m 591.969,620.098 -11.321,9.84 -28.039,-55.125 50.68,35.445 z"
         style="fill:none;stroke:#000000;stroke-width:5;stroke-linecap:round;stroke-linejoin:miter;stroke-miterlimit:10;stroke-dasharray:none;stroke-opacity:1"
         id="path937" /><path
         d="m 2605.5,2610 h 675 l -45,-450 h -675 l 45,450"
         style="fill:#ffffff;fill-opacity:1;fill-rule:evenodd;stroke:none"
         id="path939" /><path
         d="m 2633.1441,2609.7748 h 1085.921 l -72.3948,-449.5496 h -1085.921 z"
         style="fill:none;stroke:#000000;stroke-width:6.33869;stroke-linecap:round;stroke-linejoin:miter;stroke-miterlimit:10;stroke-dasharray:none;stroke-opacity:1"
         id="path941" /><g
         id="g943"
         transform="matrix(10,0,0,10,138.06746,7.1453611)"><text
           transform="matrix(1,0,0,-1,257.05,222.3)"
           style="font-variant:normal;font-weight:normal;font-size:9px;font-family:'Times New Roman';-inkscape-font-specification:Times-Roman;writing-mode:lr-tb;fill:#000000;fill-opacity:1;fill-rule:nonzero;stroke:none"
           id="text947"><tspan
             x="0 5.0040002 9.5039997 14.004 18 20.997 25.497 27.999001 31.5 36 38.997002 43.497002 48.500999 53.000999 56.501999 59.004002 63"
             y="0"
             sodipodi:role="line"
             id="tspan945">SupervisorySystem</tspan></text></g><path
         d="m 2727.9705,2610 -56.2133,-270 h 880.6735 l 56.2131,270"
         style="fill:none;stroke:#000000;stroke-width:7.21452;stroke-linecap:round;stroke-linejoin:miter;stroke-miterlimit:10;stroke-dasharray:none;stroke-opacity:1"
         id="path949" /><g
         id="g951"
         transform="matrix(10,0,0,10,220.44801,5.4654248)"><text
           transform="matrix(1,0,0,-1,251.956,249.3)"
           style="font-variant:normal;font-weight:normal;font-size:9px;font-family:'Times New Roman';-inkscape-font-specification:Times-Roman;writing-mode:lr-tb;fill:#000000;fill-opacity:1;fill-rule:nonzero;stroke:none"
           id="text957"><tspan
             x="0 3.5009999 8.0010004 12.501 16.497 19.493999 23.993999 26.496 29.997 34.497002 37.493999 40.491001 43.992001 48.492001 51.993 54.494999 58.491001 65.492996 69.992996 74.492996 78.488998"
             y="0"
             sodipodi:role="line"
             id="tspan953">supervisor-system_bes</tspan><tspan
             x="27.871901 30.8689 35.3689 37.6189 42.1189 46.6189 51.1189"
             y="9"
             sodipodi:role="line"
             id="tspan955">[0.423]</tspan></text></g><path
         d="m 2929.5,2340 -387,-720"
         style="fill:none;stroke:#000000;stroke-width:5;stroke-linecap:round;stroke-linejoin:miter;stroke-miterlimit:10;stroke-dasharray:none;stroke-opacity:1"
         id="path959" /><path
         d="m 2570.91,1672.85 -13.21,7.1 -15.2,-59.95 41.62,45.75 -13.21,7.1"
         style="fill:#000000;fill-opacity:1;fill-rule:evenodd;stroke:none"
         id="path961" /><path
         d="m 2570.91,1672.85 -13.21,7.1 -15.2,-59.95 41.62,45.75 z"
         style="fill:none;stroke:#000000;stroke-width:5;stroke-linecap:round;stroke-linejoin:miter;stroke-miterlimit:10;stroke-dasharray:none;stroke-opacity:1"
         id="path963" /><g
         id="g965"
         transform="scale(10)"><text
           transform="matrix(1,0,0,-1,258.678,177.3)"
           style="font-variant:normal;font-weight:normal;font-size:9px;font-family:'Times New Roman';-inkscape-font-specification:Times-Roman;writing-mode:lr-tb;fill:#000000;fill-opacity:1;fill-rule:nonzero;stroke:none"
           id="text969"><tspan
             x="0 2.997 7.4970002"
             y="0"
             sodipodi:role="line"
             id="tspan967">(1)</tspan></text></g><path
         d="M 2740.5,2160 584.875,540.168"
         style="fill:none;stroke:#000000;stroke-width:5;stroke-linecap:round;stroke-linejoin:miter;stroke-miterlimit:10;stroke-dasharray:none;stroke-opacity:1"
         id="path971" /><path
         d="m 632.844,576.211 -9.012,11.992 -38.957,-48.035 56.977,24.051 -9.008,11.992"
         style="fill:#000000;fill-opacity:1;fill-rule:evenodd;stroke:none"
         id="path973" /><path
         d="m 632.844,576.211 -9.012,11.992 -38.957,-48.035 56.977,24.051 z"
         style="fill:none;stroke:#000000;stroke-width:5;stroke-linecap:round;stroke-linejoin:miter;stroke-miterlimit:10;stroke-dasharray:none;stroke-opacity:1"
         id="path975" /><path
         d="m 1460.5105,1619.7986 h 1269 l -45,-450 h -1269 l 45,450"
         style="fill:#ffffff;fill-opacity:1;fill-rule:evenodd;stroke:none"
         id="path977" /><path
         d="m 1460.5105,1619.7986 h 1517.6027 l -53.8156,-449.5972 H 1406.6947 Z"
         style="fill:none;stroke:#000000;stroke-width:5.46542;stroke-linecap:round;stroke-linejoin:miter;stroke-miterlimit:10;stroke-dasharray:none;stroke-opacity:1"
         id="path979" /><g
         id="g981"
         transform="scale(10)"><text
           transform="matrix(1,0,0,-1,183.808,123.3)"
           style="font-variant:normal;font-weight:normal;font-size:9px;font-family:'Times New Roman';-inkscape-font-specification:Times-Roman;writing-mode:lr-tb;fill:#000000;fill-opacity:1;fill-rule:nonzero;stroke:none"
           id="text985"><tspan
             x="0 4.5 8.4960003 12.996 15.498 19.493999 21.996 25.992001 28.989 32.985001 37.485001 41.985001 44.487 47.484001 51.984001"
             y="0"
             sodipodi:role="line"
             id="tspan983">vehicle-control</tspan></text></g><path
         d="m 1430.9007,1350 h 461.1633 l 29.436,270"
         style="fill:none;stroke:#000000;stroke-width:5.22068;stroke-linecap:round;stroke-linejoin:miter;stroke-miterlimit:10;stroke-dasharray:none;stroke-opacity:1"
         id="path987" /><g
         id="g989"
         transform="matrix(10,0,0,10,-18.425834,-1.9884102)"><text
           transform="matrix(1,0,0,-1,148.658,150.3)"
           style="font-variant:normal;font-weight:normal;font-size:9px;font-family:'Times New Roman';-inkscape-font-specification:Times-Roman;writing-mode:lr-tb;fill:#000000;fill-opacity:1;fill-rule:nonzero;stroke:none"
           id="text995"><tspan
             x="0 3.9960001 6.993 9.9899998 12.492 16.992001 20.988001 25.488001 29.988001 34.487999 38.484001"
             y="0"
             sodipodi:role="line"
             id="tspan991">arrived_bes</tspan><tspan
             x="7.8699198 10.86692 15.36692 17.61692 22.11692 26.61692 31.11692"
             y="9"
             sodipodi:role="line"
             id="tspan993">[0.741]</tspan></text></g><path
         d="M 1621.5,1350 2196,630"
         style="fill:none;stroke:#000000;stroke-width:5;stroke-linecap:round;stroke-linejoin:miter;stroke-miterlimit:10;stroke-dasharray:none;stroke-opacity:1"
         id="path997" /><path
         d="M 2158.58,676.898 2146.85,667.543 2196,630 l -25.7,56.254 -11.72,-9.356"
         style="fill:#000000;fill-opacity:1;fill-rule:evenodd;stroke:none"
         id="path999" /><path
         d="M 2158.58,676.898 2146.85,667.543 2196,630 l -25.7,56.254 z"
         style="fill:none;stroke:#000000;stroke-width:5;stroke-linecap:round;stroke-linejoin:miter;stroke-miterlimit:10;stroke-dasharray:none;stroke-opacity:1"
         id="path1001" /><g
         id="g1003"
         transform="scale(10)"><text
           transform="matrix(1,0,0,-1,199.991,78.3)"
           style="font-variant:normal;font-weight:normal;font-size:9px;font-family:'Times New Roman';-inkscape-font-specification:Times-Roman;writing-mode:lr-tb;fill:#000000;fill-opacity:1;fill-rule:nonzero;stroke:none"
           id="text1007"><tspan
             x="0 2.997 7.4970002"
             y="0"
             sodipodi:role="line"
             id="tspan1005">(1)</tspan></text></g><path
         d="M 1771.5,1350 2973.8678,633.90927"
         style="fill:none;stroke:#000000;stroke-width:5.19324;stroke-linecap:round;stroke-linejoin:miter;stroke-miterlimit:10;stroke-dasharray:none;stroke-opacity:1"
         id="path1009" /><path
         d="m 2973.8678,633.90927 -8.17,-12.582 58.49,-20.102 -42.15,45.262 -8.17,-12.578"
         style="fill:#000000;fill-opacity:1;fill-rule:evenodd;stroke:none"
         id="path1011" /><path
         d="m 2973.8678,633.90927 -8.17,-12.582 58.49,-20.102 -42.15,45.262 z"
         style="fill:none;stroke:#000000;stroke-width:5;stroke-linecap:round;stroke-linejoin:miter;stroke-miterlimit:10;stroke-dasharray:none;stroke-opacity:1"
         id="path1013" /><g
         id="g1015"
         transform="matrix(10,0,0,10,45.59722,33.357233)"><text
           transform="matrix(1,0,0,-1,255.041,78.3)"
           style="font-variant:normal;font-weight:normal;font-size:9px;font-family:'Times New Roman';-inkscape-font-specification:Times-Roman;writing-mode:lr-tb;fill:#000000;fill-opacity:1;fill-rule:nonzero;stroke:none"
           id="text1019"><tspan
             x="0 2.997 7.4970002"
             y="0"
             sodipodi:role="line"
             id="tspan1017">(1)</tspan></text></g><path
         d="m 1894.7826,1350.2826 h 525.1258 l 33.5187,269.4348"
         style="fill:none;stroke:#000000;stroke-width:5.56515;stroke-linecap:round;stroke-linejoin:miter;stroke-miterlimit:10;stroke-dasharray:none;stroke-opacity:1"
         id="path1021" /><g
         id="g1023"
         transform="matrix(10,0,0,10,53.705698,0)"><text
           transform="matrix(1,0,0,-1,190.207,150.3)"
           style="font-variant:normal;font-weight:normal;font-size:9px;font-family:'Times New Roman';-inkscape-font-specification:Times-Roman;writing-mode:lr-tb;fill:#000000;fill-opacity:1;fill-rule:nonzero;stroke:none"
           id="text1029"><tspan
             x="0 3.9960001 8.4960003 12.996 15.498 18.495001 22.490999 26.990999 31.490999 35.991001 39.987"
             y="0"
             sodipodi:role="line"
             id="tspan1025">expired_bes</tspan><tspan
             x="8.62148 11.61848 16.118481 18.368481 22.868481 27.368481 31.868481"
             y="9"
             sodipodi:role="line"
             id="tspan1027">[0.742]</tspan></text></g><path
         d="M 2044.5,1350 1089,630"
         style="fill:none;stroke:#000000;stroke-width:5;stroke-linecap:round;stroke-linejoin:miter;stroke-miterlimit:10;stroke-dasharray:none;stroke-opacity:1"
         id="path1031" /><path
         d="m 1136.92,666.109 -9.03,11.977 L 1089,630 l 56.95,24.129 -9.03,11.98"
         style="fill:#000000;fill-opacity:1;fill-rule:evenodd;stroke:none"
         id="path1033" /><path
         d="m 1136.92,666.109 -9.03,11.977 L 1089,630 l 56.95,24.129 z"
         style="fill:none;stroke:#000000;stroke-width:5;stroke-linecap:round;stroke-linejoin:miter;stroke-miterlimit:10;stroke-dasharray:none;stroke-opacity:1"
         id="path1035" /><g
         id="g1037"
         transform="scale(10)"><text
           transform="matrix(1,0,0,-1,127.541,78.3)"
           style="font-variant:normal;font-weight:normal;font-size:9px;font-family:'Times New Roman';-inkscape-font-specification:Times-Roman;writing-mode:lr-tb;fill:#000000;fill-opacity:1;fill-rule:nonzero;stroke:none"
           id="text1041"><tspan
             x="0 2.997 7.4970002"
             y="0"
             sodipodi:role="line"
             id="tspan1039">(1)</tspan></text></g><path
         d="M 2194.5,1350 3690,630"
         style="fill:none;stroke:#000000;stroke-width:5;stroke-linecap:round;stroke-linejoin:miter;stroke-miterlimit:10;stroke-dasharray:none;stroke-opacity:1"
         id="path1043" /><path
         d="m 3690,630 -6.51,-13.515 60.57,-12.512 -47.55,39.543 L 3690,630"
         style="fill:#000000;fill-opacity:1;fill-rule:evenodd;stroke:none"
         id="path1045" /><path
         d="m 3690,630 -6.51,-13.515 60.57,-12.512 -47.55,39.543 z"
         style="fill:none;stroke:#000000;stroke-width:5;stroke-linecap:round;stroke-linejoin:miter;stroke-miterlimit:10;stroke-dasharray:none;stroke-opacity:1"
         id="path1047" /><g
         id="g1049"
         transform="scale(10)"><text
           transform="matrix(1,0,0,-1,326.366,78.3)"
           style="font-variant:normal;font-weight:normal;font-size:9px;font-family:'Times New Roman';-inkscape-font-specification:Times-Roman;writing-mode:lr-tb;fill:#000000;fill-opacity:1;fill-rule:nonzero;stroke:none"
           id="text1053"><tspan
             x="0 2.997 7.4970002"
             y="0"
             sodipodi:role="line"
             id="tspan1051">(1)</tspan></text></g><path
         d="m 2318.6628,1350 h 619.7467"
         style="fill:none;stroke:#000000;stroke-width:6.05211;stroke-linecap:round;stroke-linejoin:miter;stroke-miterlimit:10;stroke-dasharray:none;stroke-opacity:1"
         id="path1055" /><g
         id="g1057"
         transform="matrix(10,0,0,10,137.90105,2.4470662)"><text
           transform="matrix(1,0,0,-1,236.003,150.3)"
           style="font-variant:normal;font-weight:normal;font-size:9px;font-family:'Times New Roman';-inkscape-font-specification:Times-Roman;writing-mode:lr-tb;fill:#000000;fill-opacity:1;fill-rule:nonzero;stroke:none"
           id="text1063"><tspan
             x="0 7.0019999 11.502 16.002001 19.997999 24.497999 28.997999 32.993999"
             y="0"
             sodipodi:role="line"
             id="tspan1059">move_bes</tspan><tspan
             x="5.125 8.1219997 12.622 14.872 19.372 23.872 28.372"
             y="9"
             sodipodi:role="line"
             id="tspan1061">[0.159]</tspan></text></g><path
         d="M 2542.5,1350 1773,630"
         style="fill:none;stroke:#000000;stroke-width:5;stroke-linecap:round;stroke-linejoin:miter;stroke-miterlimit:10;stroke-dasharray:none;stroke-opacity:1"
         id="path1065" /><path
         d="M 1816.81,670.992 1806.56,681.945 1773,630 l 54.06,30.039 -10.25,10.953"
         style="fill:#000000;fill-opacity:1;fill-rule:evenodd;stroke:none"
         id="path1067" /><path
         d="M 1816.81,670.992 1806.56,681.945 1773,630 l 54.06,30.039 z"
         style="fill:none;stroke:#000000;stroke-width:5;stroke-linecap:round;stroke-linejoin:miter;stroke-miterlimit:10;stroke-dasharray:none;stroke-opacity:1"
         id="path1069" /><g
         id="g1071"
         transform="scale(10)"><text
           transform="matrix(1,0,0,-1,191.291,78.3)"
           style="font-variant:normal;font-weight:normal;font-size:9px;font-family:'Times New Roman';-inkscape-font-specification:Times-Roman;writing-mode:lr-tb;fill:#000000;fill-opacity:1;fill-rule:nonzero;stroke:none"
           id="text1075"><tspan
             x="0 2.997 7.4970002"
             y="0"
             sodipodi:role="line"
             id="tspan1073">(1)</tspan></text></g><path
         d="M 1782,1170 601.684,514.27"
         style="fill:none;stroke:#000000;stroke-width:5;stroke-linecap:round;stroke-linejoin:miter;stroke-miterlimit:10;stroke-dasharray:none;stroke-opacity:1"
         id="path1077" /><path
         d="m 654.133,543.41 -7.281,13.11 -45.168,-42.25 59.734,16.027 -7.285,13.113"
         style="fill:#000000;fill-opacity:1;fill-rule:evenodd;stroke:none"
         id="path1079" /><path
         d="m 654.133,543.41 -7.281,13.11 -45.168,-42.25 59.734,16.027 z"
         style="fill:none;stroke:#000000;stroke-width:5;stroke-linecap:round;stroke-linejoin:miter;stroke-miterlimit:10;stroke-dasharray:none;stroke-opacity:1"
         id="path1081" /><path
         d="M 630,405 C 630,529.262 529.262,630 405,630 280.738,630 180,529.262 180,405 180,280.738 280.738,180 405,180 c 124.262,0 225,100.738 225,225"
         style="fill:#ffffff;fill-opacity:1;fill-rule:evenodd;stroke:none"
         id="path1083" /><path
         d="M 630,405 C 630,529.262 529.262,630 405,630 280.738,630 180,529.262 180,405 180,280.738 280.738,180 405,180 c 124.262,0 225,100.738 225,225 z"
         style="fill:none;stroke:#000000;stroke-width:5;stroke-linecap:round;stroke-linejoin:miter;stroke-miterlimit:10;stroke-dasharray:none;stroke-opacity:1"
         id="path1085" /><path
         d="m 765,630 h 675 L 1395,180 H 720 l 45,450"
         style="fill:#ffffff;fill-opacity:1;fill-rule:evenodd;stroke:none"
         id="path1093" /><path
         d="M 772.76361,629.78981 H 1560.729 L 1508.198,180.21019 H 720.23258 Z"
         style="fill:none;stroke:#000000;stroke-width:5.39969;stroke-linecap:round;stroke-linejoin:miter;stroke-miterlimit:10;stroke-dasharray:none;stroke-opacity:1"
         id="path1095" /><g
         id="g1097"
         transform="scale(10)"><text
           transform="matrix(1,0,0,-1,81.0008,24.3)"
           style="font-variant:normal;font-weight:normal;font-size:9px;font-family:'Times New Roman';-inkscape-font-specification:Times-Roman;writing-mode:lr-tb;fill:#000000;fill-opacity:1;fill-rule:nonzero;stroke:none"
           id="text1101"><tspan
             x="0 4.5 7.0019999 10.503 15.003 17.504999 21.500999 26.000999 28.997999 32.499001 36.999001 40.5 43.001999 46.998001"
             y="0"
             sodipodi:role="line"
             id="tspan1099">display-system</tspan></text></g><path
         d="M 831.8276,630 787.41283,360 h 695.83147 l 44.4148,270"
         style="fill:none;stroke:#000000;stroke-width:6.41286;stroke-linecap:round;stroke-linejoin:miter;stroke-miterlimit:10;stroke-dasharray:none;stroke-opacity:1"
         id="path1103" /><g
         id="g1105"
         transform="matrix(10,0,0,10,68.671039,-8.2753305)"><text
           transform="matrix(1,0,0,-1,75.1512,51.3)"
           style="font-variant:normal;font-weight:normal;font-size:9px;font-family:'Times New Roman';-inkscape-font-specification:Times-Roman;writing-mode:lr-tb;fill:#000000;fill-opacity:1;fill-rule:nonzero;stroke:none"
           id="text1111"><tspan
             x="0 4.5 7.0019999 10.503 15.003 17.504999 21.500999 26.000999 30.500999 34.001999 36.504002 40.5 43.001999 47.501999 51.002998 55.502998 60.002998 63.999001"
             y="0"
             sodipodi:role="line"
             id="tspan1107">display_status_bes</tspan><tspan
             x="20.627001 23.624001 28.124001 30.374001 34.874001 39.374001 43.874001"
             y="9"
             sodipodi:role="line"
             id="tspan1109">[0.742]</tspan></text></g><path
         d="M 1615.9977,601.23393 H 2827.1404 L 2762.718,151.45991 H 1551.5751 Z"
         style="fill:none;stroke:#000000;stroke-width:5.981;stroke-linecap:round;stroke-linejoin:miter;stroke-miterlimit:10;stroke-dasharray:none;stroke-opacity:1"
         id="path1115" /><g
         id="g1117"
         transform="matrix(10,0,0,10,111.65494,-28.653081)"><text
           transform="matrix(1,0,0,-1,186.8,24.3)"
           style="font-variant:normal;font-weight:normal;font-size:9px;font-family:'Times New Roman';-inkscape-font-specification:Times-Roman;writing-mode:lr-tb;fill:#000000;fill-opacity:1;fill-rule:nonzero;stroke:none"
           id="text1121"><tspan
             x="0 7.0019999 11.502 14.004 18.504"
             y="0"
             sodipodi:role="line"
             id="tspan1119">motor</tspan></text></g><path
         d="m 1579.7468,331.62428 h 603.852 l 38.5436,269.44528"
         style="fill:none;stroke:#000000;stroke-width:5.96786;stroke-linecap:round;stroke-linejoin:miter;stroke-miterlimit:10;stroke-dasharray:none;stroke-opacity:1"
         id="path1123" /><g
         id="g1125"
         transform="matrix(10,0,0,10,129.2987,-36.232168)"><text
           transform="matrix(1,0,0,-1,148.303,51.3)"
           style="font-variant:normal;font-weight:normal;font-size:9px;font-family:'Times New Roman';-inkscape-font-specification:Times-Roman;writing-mode:lr-tb;fill:#000000;fill-opacity:1;fill-rule:nonzero;stroke:none"
           id="text1131"><tspan
             x="0 3.5009999 6.0029998 9.9989996 12.996 15.498 19.997999 27 31.5 34.001999 38.501999 41.499001 45.999001 50.499001 54.494999"
             y="0"
             sodipodi:role="line"
             id="tspan1127">start_motor_bes</tspan><tspan
             x="15.8754 18.8724 23.3724 25.6224 30.1224 34.622398 39.122398"
             y="9"
             sodipodi:role="line"
             id="tspan1129">[0.159]</tspan></text></g><path
         d="m 2084.1433,331.34692 h 693.5916"
         style="fill:none;stroke:#000000;stroke-width:6.40253;stroke-linecap:round;stroke-linejoin:miter;stroke-miterlimit:10;stroke-dasharray:none;stroke-opacity:1"
         id="path1133" /><g
         id="g1135"
         transform="matrix(10,0,0,10,313.64798,-31.593646)"><text
           transform="matrix(1,0,0,-1,190.85,51.3)"
           style="font-variant:normal;font-weight:normal;font-size:9px;font-family:'Times New Roman';-inkscape-font-specification:Times-Roman;writing-mode:lr-tb;fill:#000000;fill-opacity:1;fill-rule:nonzero;stroke:none"
           id="text1141"><tspan
             x="0 3.5009999 6.0029998 10.503 15.003 19.503 26.504999 31.004999 33.507 38.007 41.004002 45.504002 50.004002 54"
             y="0"
             sodipodi:role="line"
             id="tspan1137">stop_motor_bes</tspan><tspan
             x="17.878099 20.875099 25.375099 27.625099 32.125099 36.625099"
             y="9"
             sodipodi:role="line"
             id="tspan1139">[0.96]</tspan></text></g><path
         d="m 2898.1878,601.22527 h 675 l -45,-450 h -675 l 45,450"
         style="fill:#ffffff;fill-opacity:1;fill-rule:evenodd;stroke:none"
         id="path1143" /><path
         d="m 2898.1878,601.22527 h 675 l -45,-450 h -675 z"
         style="fill:none;stroke:#000000;stroke-width:5;stroke-linecap:round;stroke-linejoin:miter;stroke-miterlimit:10;stroke-dasharray:none;stroke-opacity:1"
         id="path1145" /><g
         id="g1147"
         transform="matrix(10,0,0,10,342.18782,-28.774729)"><text
           transform="matrix(1,0,0,-1,269.105,24.3)"
           style="font-variant:normal;font-weight:normal;font-size:9px;font-family:'Times New Roman';-inkscape-font-specification:Times-Roman;writing-mode:lr-tb;fill:#000000;fill-opacity:1;fill-rule:nonzero;stroke:none"
           id="text1151"><tspan
             x="0 2.997 7.4970002 11.997 16.497 18.999001 21.996 25.992001 28.989"
             y="0"
             sodipodi:role="line"
             id="tspan1149">robot-arm</tspan></text></g><path
         d="m 3024.1878,601.22527 -27,-270 h 423 l 27,270"
         style="fill:none;stroke:#000000;stroke-width:5;stroke-linecap:round;stroke-linejoin:miter;stroke-miterlimit:10;stroke-dasharray:none;stroke-opacity:1"
         id="path1153" /><g
         id="g1155"
         transform="matrix(10,0,0,10,342.18782,-28.774729)"><text
           transform="matrix(1,0,0,-1,272.003,51.3)"
           style="font-variant:normal;font-weight:normal;font-size:9px;font-family:'Times New Roman';-inkscape-font-specification:Times-Roman;writing-mode:lr-tb;fill:#000000;fill-opacity:1;fill-rule:nonzero;stroke:none"
           id="text1161"><tspan
             x="0 2.5020001 7.0019999 10.998 15.498 19.997999 24.497999 28.493999"
             y="0"
             sodipodi:role="line"
             id="tspan1157">load_bes</tspan><tspan
             x="2.875 5.8720002 10.372 12.622 17.122 21.622 26.122"
             y="9"
             sodipodi:role="line"
             id="tspan1159">[0.741]</tspan></text></g><path
         d="m 3573.1878,601.22527 h 675 l -45,-450 h -675 l 45,450"
         style="fill:#ffffff;fill-opacity:1;fill-rule:evenodd;stroke:none"
         id="path1163" /><path
         d="m 3620.99,600.14089 h 795.857 l -53.0571,-449.55142 h -795.8571 z"
         style="fill:none;stroke:#000000;stroke-width:5.42649;stroke-linecap:round;stroke-linejoin:miter;stroke-miterlimit:10;stroke-dasharray:none;stroke-opacity:1"
         id="path1165" /><g
         id="g1167"
         transform="matrix(10,0,0,10,298.50629,-24.718613)"><text
           transform="matrix(1,0,0,-1,343.355,24.3)"
           style="font-variant:normal;font-weight:normal;font-size:9px;font-family:'Times New Roman';-inkscape-font-specification:Times-Roman;writing-mode:lr-tb;fill:#000000;fill-opacity:1;fill-rule:nonzero;stroke:none"
           id="text1171"><tspan
             x="0 4.5 8.4960003 12.996 15.498 19.493999 21.996 25.992001 28.989 32.490002 34.992001 38.987999 41.490002 45.990002"
             y="0"
             sodipodi:role="line"
             id="tspan1169">vehicle-status</tspan></text></g><path
         d="m 3709.9065,601.22527 -37.7187,-270 h 590.9267 l 37.7187,270"
         style="fill:none;stroke:#000000;stroke-width:5.90971;stroke-linecap:round;stroke-linejoin:miter;stroke-miterlimit:10;stroke-dasharray:none;stroke-opacity:1"
         id="path1173" /><g
         id="g1175"
         transform="matrix(10,0,0,10,296.80022,-22.234903)"><text
           transform="matrix(1,0,0,-1,342.752,51.3)"
           style="font-variant:normal;font-weight:normal;font-size:9px;font-family:'Times New Roman';-inkscape-font-specification:Times-Roman;writing-mode:lr-tb;fill:#000000;fill-opacity:1;fill-rule:nonzero;stroke:none"
           id="text1181"><tspan
             x="0 4.5 8.4960003 10.998 15.498 18.999001 21.500999 25.497 27.999001 32.499001 36 40.5 45 48.995998"
             y="0"
             sodipodi:role="line"
             id="tspan1177">get_status_bes</tspan><tspan
             x="13.1258 16.122801 20.622801 22.872801 27.372801 31.872801 36.372799"
             y="9"
             sodipodi:role="line"
             id="tspan1179">[0.654]</tspan></text></g><rect
         style="fill:#ffffff;stroke-width:7.69478;stroke-linejoin:round;stroke-opacity:0.976471;paint-order:markers fill stroke"
         id="rect1183"
         width="609.15216"
         height="140.83575"
         x="67.879463"
         y="-466.21979"
         transform="scale(1,-1)" /><g
         id="g1087"
         transform="matrix(10,0,0,10,-4.1133359,-9.1815292)"><text
           transform="matrix(1,0,0,-1,8.00664,37.8)"
           style="font-variant:normal;font-weight:normal;font-size:9px;font-family:'Times New Roman';-inkscape-font-specification:Times-Roman;writing-mode:lr-tb;fill:#000000;fill-opacity:1;fill-rule:nonzero;stroke:none"
           id="text1091"><tspan
             x="0 6.4980001 10.494 14.994 17.496 21.492001 23.993999 27.99 33.993 38.493 42.993 45.494999 48.492001 52.992001 55.493999 57.995998 61.992001"
             y="0"
             sodipodi:role="line"
             id="tspan1089">VehicleController</tspan></text></g></g></g></svg>
